<svg xmlns="http://www.w3.org/2000/svg" id="Layer_2" data-name="Layer 2" viewBox="0 0 1120.84 252"><defs><style>.cls-1{fill:#12141e}.cls-2{opacity:.98}</style></defs><g id="Layer_1-2" data-name="Layer 1"><path d="M263.62 250.57h36.95L177.85 12.24a19.94 19.94 0 0 0-17.73-10.81h-18.35c-.89 0-1.76.07-2.62.2l124.48 248.95Z" class="cls-1"/><path d="M302.91 252h-40.17L136.98.49l1.96-.28c.96-.14 1.91-.21 2.83-.21h18.35c8.04 0 15.32 4.44 19 11.59zm-38.4-2.86h33.72L176.58 12.9a18.46 18.46 0 0 0-16.46-10.04h-18.76zm-73.19-33.96c-31.78-.07-63.56-.13-95.34-.2-14.27-.06-23.74-14.81-17.85-27.81l47.16-104.04-18.09-36.18L2.34 250.57h206.68l-17.7-35.4Z" class="cls-1"/><path d="M211.33 252H0L107.22 43.78l19.66 39.31-47.45 104.66c-2.57 5.66-2.09 12.16 1.26 17.4 3.36 5.23 9.07 8.37 15.29 8.39l96.22.2 19.13 38.25ZM4.69 249.14h202.02l-16.27-32.54-94.46-.2a21.06 21.06 0 0 1-17.69-9.71 21.04 21.04 0 0 1-1.46-20.12l46.88-103.42-16.53-33.06z" class="cls-1"/><g class="cls-2"><path d="M856.36 94.91c-13.27 0-23.67-3.52-30.92-10.46s-10.92-16.93-10.92-29.69v-10.3c0-13.35 3.54-23.8 10.53-31.07 6.96-7.25 16.93-10.92 29.63-10.92 11.95 0 21.31 3.61 27.84 10.73 6.56 7.16 9.88 17.44 9.88 30.56v9.7h-48.83c.11-5.49 4.89-9.89 10.74-9.89h27.17v-1.65c0-9.18-2.35-16.41-7-21.49-4.67-5.11-11.34-7.71-19.8-7.71-9.27 0-16.55 2.72-21.62 8.09-5.05 5.35-7.61 12.98-7.61 22.69v11.61c0 9.32 2.73 16.65 8.11 21.79 5.39 5.15 13.06 7.76 22.81 7.76 4.59 0 9.2-.91 13.69-2.7 4.24-1.69 8.09-4.08 11.45-7.11l7.99 7.19c-4.5 3.99-9.63 7.14-15.26 9.36-5.87 2.32-11.88 3.5-17.87 3.5Z" class="cls-1"/><path d="M856.36 96.08c-13.58 0-24.26-3.63-31.73-10.78-7.49-7.17-11.29-17.45-11.29-30.53v-10.3c0-13.67 3.65-24.39 10.86-31.89C831.39 5.1 841.65 1.3 854.67 1.3c12.29 0 21.95 3.74 28.7 11.11 6.76 7.38 10.19 17.93 10.19 31.35v10.87h-51.21l.02-1.2c.12-6.09 5.47-11.04 11.92-11.04h25.99v-.48c0-8.88-2.25-15.84-6.69-20.7s-10.81-7.32-18.93-7.32c-8.94 0-15.92 2.6-20.76 7.72s-7.29 12.48-7.29 21.88V55.1c0 8.99 2.61 16.03 7.75 20.94 5.16 4.93 12.56 7.43 22 7.43 4.44 0 8.9-.88 13.25-2.62 4.11-1.64 7.85-3.96 11.1-6.89l.79-.71 9.76 8.78-.99.87c-4.61 4.08-9.86 7.3-15.61 9.58-6.01 2.38-12.17 3.58-18.3 3.58Zm-1.69-92.43c-12.36 0-22.04 3.55-28.78 10.56-6.77 7.04-10.2 17.22-10.2 30.26v10.3c0 12.42 3.55 22.12 10.56 28.84 7.02 6.72 17.15 10.13 30.1 10.13 5.84 0 11.7-1.15 17.44-3.42 5.08-2.01 9.76-4.8 13.91-8.29l-6.23-5.6a39.3 39.3 0 0 1-11 6.63c-4.63 1.85-9.38 2.79-14.12 2.79-10.06 0-18.01-2.72-23.62-8.08-5.62-5.37-8.47-12.99-8.47-22.64V43.52c0-10.02 2.67-17.93 7.94-23.5 5.3-5.61 12.86-8.46 22.47-8.46 8.81 0 15.76 2.72 20.67 8.09 4.85 5.3 7.3 12.8 7.3 22.28v2.83h-28.35c-4.74 0-8.74 3.29-9.45 7.54h46.36v-8.52c0-12.82-3.22-22.83-9.57-29.76-6.29-6.87-15.36-10.35-26.97-10.35ZM390.51 95.68l46.73-90.75a6.91 6.91 0 0 1 6.15-3.75h6.96c2.83 0 5.43 1.58 6.72 4.1l46.55 90.4H489.1l-38.27-77.11c-1.54-3.11-5.98-3.11-7.52 0l-38.27 77.11h-14.52Z" class="cls-1"/><path d="M505.56 96.86h-17.18l-38.6-77.77c-.52-1.05-1.53-1.68-2.71-1.68s-2.19.63-2.71 1.68l-38.6 77.77h-17.18l47.61-92.47a8.06 8.06 0 0 1 7.2-4.39h6.96c3.29 0 6.27 1.82 7.77 4.74l47.43 92.12Zm-15.73-2.36h11.87L456.03 5.82a6.36 6.36 0 0 0-5.68-3.46h-6.96c-2.16 0-4.12 1.19-5.11 3.12l-45.84 89.03h11.87l37.95-76.46c.91-1.84 2.76-2.99 4.81-2.99s3.9 1.14 4.81 2.99l37.95 76.46Zm151.91-3.21L598.11 1.18h13.8l34.23 73.12c1.51 3.23 6.1 3.23 7.61 0l34.23-73.12h13.8l-43.65 90.16a7.7 7.7 0 0 1-6.93 4.34h-2.46c-2.98 0-5.7-1.71-7-4.39" class="cls-1"/><path d="M651.2 96.86h-2.46c-3.41 0-6.58-1.98-8.06-5.05L596.23 0h16.42l34.55 73.79c.51 1.09 1.54 1.74 2.74 1.74s2.23-.65 2.74-1.74L687.23 0h16.42l-44.47 91.85c-1.47 3.04-4.61 5.01-7.98 5.01M599.98 2.35l42.81 88.42a6.64 6.64 0 0 0 5.94 3.73h2.46c2.48 0 4.78-1.44 5.87-3.68L699.9 2.35h-11.17l-33.92 72.44c-.89 1.91-2.76 3.1-4.87 3.1s-3.98-1.19-4.87-3.1L611.16 2.35h-11.17Zm399.74 93.22 46.44-90.19a7.77 7.77 0 0 1 6.9-4.21h6.3a7.82 7.82 0 0 1 6.95 4.24l46.42 90.15c.03.05-.01.11-.07.11h-14.35s-.06-.02-.07-.04l-38.25-77.07c-1.54-3.11-5.98-3.11-7.52 0l-38.25 77.07s-.04.04-.07.04H999.8c-.06 0-.09-.06-.07-.11Z" class="cls-1"/><path d="M1112.66 96.86h-15.09l-.39-.71-38.24-77.05c-.52-1.05-1.53-1.68-2.71-1.68s-2.19.63-2.71 1.68l-38.57 77.72-.8.04h-15.01l-.41-.6c-.22-.37-.24-.84-.04-1.22l46.44-90.19a8.89 8.89 0 0 1 7.94-4.84h6.3a8.97 8.97 0 0 1 8 4.88l46.72 90.74-.35.64c-.23.37-.63.59-1.06.59Zm-13.67-2.36h11.87l-45.59-88.55a6.62 6.62 0 0 0-5.91-3.6h-6.3a6.55 6.55 0 0 0-5.85 3.57L1001.6 94.5h11.87l37.95-76.46c.91-1.84 2.76-2.99 4.81-2.99s3.9 1.14 4.81 2.99z" class="cls-1"/></g><g class="cls-2"><path d="M383.58 160.32h8.86v89.58h-8.86zm5.48 43.46h30.54c3.32 0 6.25-.73 8.77-2.18 2.52-1.46 4.47-3.52 5.85-6.19 1.37-2.67 2.08-5.75 2.12-9.24 0-3.49-.69-6.57-2.06-9.23-1.38-2.67-3.32-4.73-5.85-6.19s-5.47-2.19-8.84-2.19h-30.54v-8.25h30.04c5.17 0 9.72 1.07 13.64 3.2s6.96 5.16 9.11 9.08 3.23 8.45 3.23 13.58-1.08 9.66-3.23 13.58-5.2 6.95-9.14 9.08-8.48 3.2-13.61 3.2h-30.04v-8.25Zm28.69 5.49 8.19-2.83 22.9 43.47h-10.59z" class="cls-1"/><path d="M450.79 251.08h-13.26l-19.1-37.87h-24.8v37.87h-11.22v-91.94h36.7c5.34 0 10.12 1.13 14.2 3.34 4.1 2.24 7.33 5.45 9.58 9.55 2.24 4.08 3.38 8.84 3.38 14.14s-1.14 10.07-3.38 14.14c-2.25 4.1-5.49 7.32-9.61 9.55q-1.62.885-3.39 1.53l20.91 39.68Zm-11.82-2.36h7.92l-19.28-36.6c-2.07.57-4.27.91-6.57 1.03l17.94 35.56Zm-54.21 0h6.51v-35.51h-3.39v-10.6h3.39v-32.87h-3.39v-8.25h-3.13v87.23Zm8.86-37.86h23.61l-1.14-2.26 10.41-3.6 2.27 4.31c1.18-.42 2.3-.92 3.38-1.5 3.72-2.02 6.64-4.92 8.67-8.62 2.05-3.73 3.09-8.1 3.09-13.01s-1.04-9.28-3.09-13.01c-2.03-3.7-4.94-6.6-8.64-8.61-3.73-2.03-8.13-3.06-13.07-3.06h-25.48v5.9h25.97c3.56 0 6.73.79 9.42 2.35 2.71 1.56 4.83 3.8 6.3 6.67 1.46 2.82 2.19 6.11 2.19 9.77-.05 3.68-.81 6.96-2.26 9.78-1.48 2.86-3.6 5.11-6.31 6.67-2.69 1.55-5.84 2.34-9.36 2.34h-25.97v5.9Zm-3.39 0h1.03v-5.9h-1.03zm29.18-.92.46.91c2.33-.05 4.54-.34 6.61-.86l-1.11-2.11zm-25.79-7.33h25.97c3.1 0 5.86-.68 8.18-2.03 2.31-1.33 4.13-3.25 5.39-5.71 1.28-2.49 1.95-5.42 1.99-8.71 0-3.27-.65-6.19-1.93-8.68-1.27-2.46-3.08-4.38-5.39-5.71-2.34-1.35-5.11-2.03-8.25-2.03h-25.97v32.87Zm-3.39-35.22h1.03v-5.9h-1.03zm113.35 79.56c-4.7-2.59-8.28-6.34-10.74-11.27s-3.69-10.88-3.69-17.85v-25.37c0-6.98 1.23-12.93 3.69-17.86s6.04-8.68 10.74-11.27c4.7-2.58 10.37-3.88 17.03-3.88s12.32 1.29 17.02 3.88 8.28 6.34 10.74 11.27 3.69 10.88 3.69 17.86v25.37q0 10.47-3.69 17.85c-3.69 7.38-6.04 8.68-10.74 11.27-4.7 2.58-10.37 3.88-17.02 3.88s-12.32-1.29-17.03-3.88m29.24-7.24c3.39-1.91 5.96-4.68 7.73-8.31 1.76-3.63 2.65-8.02 2.65-13.14v-26.23c0-5.13-.88-9.52-2.65-13.15-1.76-3.63-4.34-6.4-7.73-8.31s-7.46-2.86-12.22-2.86-8.84.96-12.22 2.86c-3.39 1.91-5.96 4.68-7.73 8.31-1.76 3.63-2.65 8.02-2.65 13.15v26.23c0 5.13.88 9.51 2.65 13.14 1.76 3.63 4.34 6.4 7.73 8.31s7.46 2.86 12.22 2.86 8.83-.95 12.22-2.86" class="cls-1"/><path d="M520.6 252c-6.82 0-12.74-1.35-17.59-4.02-4.89-2.7-8.67-6.66-11.23-11.77-2.53-5.07-3.82-11.25-3.82-18.38v-25.37c0-7.13 1.28-13.32 3.82-18.38 2.56-5.12 6.33-9.08 11.23-11.77 4.86-2.67 10.78-4.02 17.59-4.02s12.73 1.35 17.59 4.02c4.89 2.69 8.67 6.66 11.23 11.77 2.53 5.07 3.82 11.25 3.82 18.38v25.37c0 7.13-1.28 13.31-3.82 18.38-2.56 5.12-6.34 9.08-11.23 11.77-4.85 2.67-10.77 4.02-17.59 4.02m-16.46-6.08c4.5 2.48 10.04 3.73 16.46 3.73s11.95-1.26 16.46-3.73c4.47-2.46 7.92-6.08 10.26-10.76s3.57-10.57 3.57-17.33v-25.37c0-6.76-1.2-12.59-3.57-17.33-2.34-4.68-5.79-8.3-10.26-10.76-4.5-2.48-10.04-3.73-16.45-3.73s-11.95 1.26-16.46 3.73c-4.47 2.46-7.92 6.08-10.26 10.76-2.37 4.74-3.57 10.57-3.57 17.33v25.37c0 6.76 1.2 12.59 3.57 17.33 2.34 4.68 5.79 8.3 10.26 10.76Zm16.46-2.17c-4.95 0-9.26-1.01-12.8-3.01-3.59-2.02-6.35-4.99-8.21-8.82-1.83-3.78-2.76-8.37-2.76-13.66v-26.23c0-5.29.93-9.89 2.76-13.66 1.86-3.83 4.62-6.8 8.21-8.82 3.55-2 7.86-3.01 12.8-3.01s9.24 1.01 12.8 3.01c3.59 2.02 6.35 4.99 8.21 8.82 1.83 3.78 2.76 8.37 2.76 13.66v26.23c0 5.28-.93 9.88-2.76 13.66-1.86 3.83-4.62 6.8-8.21 8.82-3.54 2-7.85 3.01-12.8 3.01m0-74.87c-4.53 0-8.45.91-11.65 2.71-3.16 1.78-5.6 4.41-7.25 7.8-1.68 3.45-2.53 7.7-2.53 12.63v26.23c0 4.93.85 9.18 2.53 12.63 1.65 3.39 4.09 6.02 7.25 7.8 3.19 1.8 7.11 2.71 11.64 2.71s8.45-.91 11.64-2.71c3.16-1.78 5.6-4.41 7.25-7.8 1.68-3.46 2.53-7.71 2.53-12.63v-26.23c0-4.93-.85-9.18-2.53-12.63-1.65-3.39-4.09-6.02-7.25-7.8-3.19-1.8-7.11-2.71-11.64-2.71Zm76.99-8.5h8.86v89.52h-8.86zm7.39 81.27h24.56c7.6 0 13.12-1.42 16.59-4.28 3.47-2.85 5.2-6.86 5.2-12.04v-.18c0-3.53-.65-6.57-1.94-9.11q-1.935-3.81-6.09-5.88c-2.77-1.37-6.33-2.06-10.68-2.06h-27.64v-8.25h27.64c5.83 0 10.21-1.29 13.14-3.88 2.93-2.58 4.4-6.42 4.4-11.51s-1.6-9.25-4.8-11.88-8.03-3.94-14.47-3.94h-25.92v-8.25h27.89c5.79 0 10.63.99 14.53 2.95 3.9 1.97 6.81 4.76 8.74 8.38 1.93 3.61 2.89 7.92 2.89 12.93 0 3.04-.6 5.9-1.79 8.59s-3.01 5-5.45 6.92c-2.44 1.93-5.47 3.23-9.08 3.88 3.61.53 6.73 1.81 9.36 3.85 2.63 2.03 4.64 4.57 6.03 7.61 1.4 3.04 2.1 6.32 2.1 9.85v.18c0 4.84-1.07 9.11-3.2 12.81-2.13 3.69-5.19 6.55-9.17 8.56s-8.62 3.02-13.91 3.02h-28.94v-8.25Z" class="cls-1"/><path d="M633.92 251.08h-37.5V159.2h36.45c5.94 0 11.01 1.04 15.06 3.08 4.1 2.07 7.21 5.06 9.25 8.87 2.01 3.77 3.03 8.31 3.03 13.49 0 3.18-.64 6.23-1.89 9.07-1.26 2.85-3.21 5.34-5.79 7.37-1.51 1.19-3.24 2.16-5.18 2.9 1.99.72 3.82 1.71 5.45 2.97 2.77 2.14 4.91 4.85 6.38 8.05 1.46 3.18 2.2 6.66 2.2 10.34v.18c0 5.03-1.13 9.54-3.36 13.4-2.24 3.88-5.49 6.91-9.66 9.02-4.13 2.09-8.99 3.14-14.45 3.14Zm-26.29-2.36h26.28c5.08 0 9.59-.97 13.38-2.89 3.76-1.9 6.68-4.62 8.68-8.1 2.02-3.5 3.05-7.61 3.05-12.22v-.18c0-3.34-.67-6.49-1.99-9.36a19.06 19.06 0 0 0-5.68-7.17c-2.46-1.9-5.42-3.11-8.81-3.61l-7.09-1.04 7.05-1.28c3.4-.62 6.28-1.84 8.56-3.65 2.28-1.8 3.99-3.98 5.1-6.48 1.12-2.53 1.69-5.26 1.69-8.11 0-4.79-.93-8.95-2.75-12.38-1.81-3.38-4.58-6.03-8.23-7.88-3.72-1.88-8.43-2.83-14-2.83h-25.23v5.9h23.27c6.69 0 11.81 1.42 15.21 4.21 3.47 2.85 5.23 7.16 5.23 12.79s-1.61 9.59-4.8 12.4c-3.14 2.77-7.83 4.17-13.92 4.17h-24.99v5.9h24.99c4.51 0 8.28.74 11.2 2.19 2.99 1.48 5.21 3.64 6.62 6.4 1.37 2.7 2.07 5.95 2.07 9.65v.18c0 5.52-1.9 9.88-5.63 12.94-3.66 3.02-9.5 4.55-17.34 4.55h-21.91v5.9Zm-8.86 0h5.04v-8.25h1.48v-31.2h-1.48v-10.6h1.48V169.8h-1.48v-8.25h-5.04zm8.86-8.24h21.91c7.28 0 12.61-1.35 15.84-4.01 3.21-2.64 4.77-6.28 4.77-11.13v-.18c0-3.32-.61-6.21-1.81-8.58-1.17-2.3-3.04-4.1-5.57-5.36-2.6-1.29-6.01-1.94-10.16-1.94h-24.99v31.2Zm0-41.81h24.99c5.51 0 9.67-1.21 12.37-3.59 2.65-2.34 4-5.92 4-10.63 0-4.97-1.43-8.56-4.37-10.97-2.97-2.44-7.59-3.67-13.72-3.67h-23.27v28.87Zm109.16 48.28c-4.7-2.59-8.28-6.34-10.74-11.27q-3.69-7.395-3.69-17.85v-25.37c0-6.98 1.23-12.93 3.69-17.86s6.04-8.68 10.74-11.27c4.7-2.58 10.37-3.88 17.03-3.88s12.32 1.29 17.02 3.88 8.28 6.34 10.74 11.27 3.69 10.88 3.69 17.86v25.37q0 10.47-3.69 17.85c-3.69 7.38-6.04 8.68-10.74 11.27-4.7 2.58-10.37 3.88-17.02 3.88s-12.32-1.29-17.03-3.88m29.24-7.24c3.39-1.91 5.96-4.68 7.73-8.31 1.76-3.63 2.65-8.02 2.65-13.14v-26.23c0-5.13-.88-9.52-2.65-13.15-1.76-3.63-4.34-6.4-7.73-8.31s-7.46-2.86-12.22-2.86-8.84.96-12.22 2.86c-3.39 1.91-5.96 4.68-7.73 8.31-1.76 3.63-2.65 8.02-2.65 13.15v26.23c0 5.13.88 9.51 2.65 13.14 1.76 3.63 4.34 6.4 7.73 8.31s7.46 2.86 12.22 2.86 8.83-.95 12.22-2.86" class="cls-1"/><path d="M733.81 252c-6.82 0-12.74-1.35-17.59-4.02-4.89-2.7-8.67-6.66-11.23-11.77-2.53-5.07-3.82-11.25-3.82-18.38v-25.37c0-7.13 1.28-13.32 3.82-18.38 2.56-5.12 6.34-9.08 11.23-11.77 4.86-2.67 10.78-4.02 17.59-4.02s12.73 1.35 17.59 4.02c4.89 2.7 8.67 6.66 11.23 11.77 2.53 5.07 3.82 11.25 3.82 18.38v25.37c0 7.13-1.28 13.31-3.82 18.38-2.56 5.12-6.33 9.08-11.23 11.77-4.86 2.67-10.77 4.02-17.59 4.02m-16.46-6.08c4.5 2.48 10.04 3.73 16.46 3.73s11.95-1.26 16.46-3.73c4.47-2.46 7.92-6.08 10.26-10.76 2.37-4.74 3.57-10.57 3.57-17.33v-25.37c0-6.76-1.2-12.59-3.57-17.33-2.34-4.68-5.79-8.3-10.26-10.76-4.5-2.48-10.04-3.73-16.45-3.73s-11.96 1.26-16.46 3.73c-4.46 2.46-7.92 6.08-10.26 10.76s-3.57 10.57-3.57 17.33v25.37c0 6.76 1.2 12.59 3.57 17.33s5.79 8.3 10.26 10.76Zm16.46-2.17c-4.95 0-9.26-1.01-12.8-3.01-3.59-2.02-6.35-4.99-8.21-8.82-1.83-3.78-2.76-8.37-2.76-13.66v-26.23c0-5.29.93-9.88 2.76-13.66 1.86-3.83 4.62-6.8 8.21-8.82 3.55-2 7.86-3.01 12.8-3.01s9.24 1.01 12.8 3.01c3.59 2.02 6.35 4.99 8.21 8.82 1.83 3.77 2.76 8.37 2.76 13.66v26.23c0 5.29-.93 9.88-2.76 13.66-1.86 3.83-4.62 6.8-8.21 8.82-3.54 2-7.85 3.01-12.8 3.01m0-74.87c-4.53 0-8.45.91-11.65 2.71-3.16 1.78-5.6 4.41-7.25 7.8-1.68 3.45-2.53 7.71-2.53 12.63v26.23c0 4.92.85 9.18 2.53 12.63 1.65 3.39 4.09 6.02 7.25 7.8 3.19 1.8 7.11 2.71 11.64 2.71s8.45-.91 11.64-2.71c3.16-1.78 5.6-4.41 7.25-7.8 1.68-3.45 2.53-7.7 2.53-12.63v-26.23c0-4.93-.85-9.18-2.53-12.63-1.65-3.39-4.09-6.02-7.25-7.8-3.19-1.8-7.11-2.71-11.64-2.71Zm64.68-8.5h63.17v8.25h-63.17zm27.15 3.63h8.86v85.89h-8.86z" class="cls-1"/><path d="M835.68 251.08h-11.22v-81.27h-27.15v-10.6h65.52v10.6h-27.15zm-8.86-2.36h6.51V169.8h-6.51zm8.86-81.27h24.8v-5.9h-60.81v5.9h24.8v-4.62h11.22v4.62Zm-8.86 0h6.51v-2.26h-6.51zm80.62 82.45h-8.87v-89.52h8.87z" class="cls-1"/><path d="M908.61 251.08h-11.22V159.2h11.22zm-8.86-2.36h6.51v-87.17h-6.51zm69.87-2.02c-4.7-2.75-8.34-6.65-10.93-11.7-2.58-5.05-3.88-10.9-3.88-17.55v-24.57c0-6.65 1.3-12.5 3.88-17.55s6.23-8.96 10.93-11.73 10.15-4.16 16.35-4.16c5.13 0 9.85 1.05 14.16 3.14s7.91 5.06 10.8 8.89c2.89 3.84 4.85 8.28 5.88 13.33h-8.87c-.98-3.37-2.6-6.34-4.83-8.93-2.24-2.58-4.85-4.6-7.85-6.03s-6.09-2.15-9.29-2.15c-4.43 0-8.33 1.05-11.7 3.14s-5.97 5.04-7.82 8.83c-1.85 3.8-2.77 8.2-2.77 13.21v24.57c0 5.01.92 9.41 2.77 13.21s4.45 6.73 7.82 8.81c3.36 2.07 7.26 3.11 11.7 3.11 3.2 0 6.3-.68 9.29-2.03s5.61-3.32 7.85-5.91 3.85-5.64 4.83-9.18h8.87c-1.03 5.05-3 9.49-5.91 13.33s-6.53 6.8-10.83 8.9c-4.31 2.09-9.01 3.14-14.1 3.14-6.2 0-11.65-1.37-16.35-4.12" class="cls-1"/><path d="M985.97 252c-6.38 0-12.08-1.44-16.94-4.29-4.87-2.85-8.7-6.95-11.38-12.18-2.66-5.2-4.01-11.28-4.01-18.08v-24.57c0-6.8 1.35-12.89 4.01-18.08 2.67-5.23 6.5-9.33 11.38-12.21 4.86-2.87 10.56-4.32 16.94-4.32 5.29 0 10.22 1.1 14.67 3.26 4.46 2.16 8.23 5.27 11.23 9.24 2.99 3.97 5.04 8.61 6.1 13.81l.29 1.41h-11.19l-.25-.85c-.93-3.18-2.48-6.04-4.59-8.49-2.12-2.45-4.63-4.38-7.47-5.74-2.82-1.35-5.78-2.04-8.79-2.04-4.19 0-7.92 1-11.07 2.96-3.16 1.96-5.64 4.77-7.38 8.35-1.76 3.62-2.65 7.89-2.65 12.7v24.57c0 4.81.89 9.08 2.65 12.69 1.74 3.58 4.22 6.38 7.38 8.32 3.16 1.95 6.88 2.93 11.08 2.93 3.02 0 5.98-.65 8.81-1.93s5.33-3.17 7.44-5.61c2.12-2.44 3.66-5.38 4.59-8.72l.24-.86h11.2l-.29 1.41c-1.06 5.2-3.12 9.85-6.13 13.81s-6.8 7.07-11.26 9.24c-4.45 2.16-9.36 3.26-14.61 3.26Zm0-91.37c-5.96 0-11.25 1.34-15.75 3.99-4.48 2.64-8.01 6.43-10.48 11.25-2.49 4.86-3.75 10.58-3.75 17.01v24.57c0 6.42 1.26 12.15 3.75 17.01 2.47 4.82 5.99 8.6 10.47 11.22 4.49 2.63 9.79 3.96 15.75 3.96 4.89 0 9.46-1.02 13.58-3.02 4.12-2.01 7.63-4.88 10.41-8.55 2.52-3.32 4.33-7.16 5.38-11.44h-6.52c-1.04 3.33-2.66 6.27-4.82 8.77-2.33 2.7-5.11 4.79-8.25 6.21s-6.43 2.14-9.78 2.14c-4.64 0-8.78-1.1-12.31-3.28-3.54-2.18-6.32-5.31-8.26-9.29-1.92-3.94-2.89-8.55-2.89-13.72v-24.57c0-5.17.97-9.78 2.89-13.72 1.94-3.98 4.71-7.12 8.26-9.32 3.53-2.2 7.68-3.32 12.32-3.32 3.36 0 6.66.76 9.8 2.27 3.13 1.5 5.9 3.63 8.23 6.33 2.15 2.49 3.77 5.35 4.81 8.52h6.53c-1.05-4.28-2.85-8.13-5.35-11.45a28.45 28.45 0 0 0-10.38-8.54c-4.13-2.01-8.72-3.02-13.65-3.02Zm88.57 88.96q-5.79-1.23-10.8-3.69a45.4 45.4 0 0 1-9.39-6.16l5.36-7.02c3.73 3.28 7.86 5.75 12.37 7.39 4.52 1.64 9.42 2.46 14.72 2.46 7.67 0 13.62-1.52 17.82-4.56 4.21-3.04 6.31-7.31 6.31-12.81v-.06c0-3.41-.92-6.14-2.74-8.19q-2.745-3.075-7.08-4.62c-2.89-1.02-6.62-1.97-11.17-2.83-.13-.04-.26-.07-.4-.09-.15-.02-.3-.05-.46-.09l-1.79-.37c-6.28-1.19-11.31-2.43-15.08-3.72-3.78-1.29-6.99-3.49-9.64-6.59s-3.97-7.4-3.97-12.9v-.06q0-8.31 3.72-14.19c2.48-3.92 6.1-6.9 10.87-8.96 4.76-2.05 10.49-3.08 17.18-3.08q4.74 0 9.39 1.05c3.1.7 6.16 1.73 9.18 3.11s6 3.11 8.96 5.2l-5.23 6.96c-3.86-2.71-7.64-4.73-11.33-6.07-3.69-1.33-7.35-2-10.96-2-7.31 0-12.97 1.54-16.99 4.62q-6.03 4.62-6.03 12.99v.06c0 3.37 1 6.02 3.02 7.98 2.01 1.95 4.5 3.4 7.48 4.34 2.97.95 7.05 1.93 12.22 2.96.16.04.34.08.52.12.19.04.38.08.59.12.24.04.48.09.71.16.23.06.46.11.71.15 5.62 1.15 10.3 2.46 14.04 3.94q5.595 2.22 9.33 6.93c2.48 3.14 3.72 7.38 3.72 12.71v.12c0 5.46-1.29 10.13-3.88 14.01-2.58 3.88-6.33 6.84-11.23 8.87-4.91 2.03-10.82 3.05-17.76 3.05-4.31 0-8.39-.41-12.25-1.23Z" class="cls-1"/><path d="M1086.79 252c-4.37 0-8.57-.42-12.5-1.26-3.94-.84-7.66-2.11-11.08-3.79s-6.66-3.8-9.63-6.31l-.85-.72 6.8-8.91.95.83c3.6 3.17 7.64 5.58 12 7.17s9.18 2.39 14.31 2.39c7.39 0 13.15-1.46 17.13-4.33 3.92-2.83 5.83-6.71 5.83-11.85 0-3.2-.8-5.62-2.44-7.47-1.69-1.89-3.9-3.34-6.59-4.29-2.84-1.01-6.54-1.94-11-2.79l-.14-.04a.7.7 0 0 0-.2-.04 7 7 0 0 1-.58-.12l-1.75-.36c-6.28-1.19-11.41-2.46-15.22-3.76-3.96-1.35-7.37-3.69-10.15-6.94-2.82-3.31-4.25-7.9-4.25-13.67s1.32-10.79 3.91-14.88c2.6-4.1 6.43-7.27 11.39-9.41 4.89-2.11 10.83-3.18 17.64-3.18 3.23 0 6.48.36 9.65 1.08 3.15.71 6.32 1.78 9.4 3.18s6.15 3.19 9.15 5.31l.99.7-6.64 8.84-.93-.65c-3.76-2.64-7.48-4.63-11.05-5.92-3.55-1.28-7.1-1.93-10.56-1.93-7.01 0-12.48 1.47-16.28 4.37-3.75 2.87-5.57 6.82-5.57 12.06 0 3.12.87 5.46 2.66 7.19 1.87 1.81 4.23 3.18 7.02 4.06 2.9.92 6.97 1.91 12.1 2.93l.54.13.56.12c.26.04.54.1.81.18.17.04.37.09.57.12 5.71 1.17 10.5 2.51 14.28 4.01 3.91 1.55 7.21 4 9.82 7.29 2.64 3.34 3.98 7.86 3.98 13.44v.12c0 5.67-1.37 10.61-4.08 14.66-2.7 4.06-6.66 7.19-11.76 9.3-5.02 2.08-11.15 3.14-18.21 3.14Zm-12.01-3.56c3.76.8 7.8 1.21 12.01 1.21 6.75 0 12.58-.99 17.31-2.96 4.66-1.93 8.27-4.77 10.71-8.43s3.68-8.15 3.68-13.35v-.12c0-5.04-1.17-9.07-3.47-11.98a21 21 0 0 0-8.84-6.56c-3.65-1.45-8.31-2.75-13.84-3.88-.24-.04-.51-.1-.78-.17-.2-.06-.4-.1-.6-.13-.24-.05-.44-.09-.64-.13s-.39-.09-.56-.13c-5.24-1.04-9.27-2.02-12.3-2.98-3.14-.99-5.81-2.55-7.94-4.62-2.24-2.17-3.37-5.14-3.37-8.82 0-6 2.19-10.69 6.5-13.99 4.21-3.22 10.17-4.86 17.71-4.86 3.73 0 7.55.7 11.36 2.07 3.47 1.25 7.06 3.12 10.67 5.56l3.82-5.08c-2.56-1.74-5.17-3.22-7.77-4.4-2.94-1.34-5.95-2.36-8.94-3.03-3-.68-6.07-1.02-9.13-1.02-6.49 0-12.12 1-16.71 2.98-4.51 1.95-7.99 4.81-10.34 8.5-2.35 3.71-3.54 8.28-3.54 13.56s1.24 9.33 3.69 12.2c2.5 2.92 5.57 5.02 9.12 6.24 3.71 1.27 8.73 2.51 14.92 3.68l1.81.37c.16.04.28.06.39.08.18.03.35.06.52.11 4.55.86 8.35 1.83 11.28 2.87 3.07 1.09 5.61 2.75 7.56 4.95 2.02 2.27 3.04 5.28 3.04 8.97 0 5.93-2.29 10.56-6.8 13.82-4.39 3.17-10.61 4.78-18.51 4.78-5.41 0-10.5-.85-15.12-2.53-4.25-1.55-8.21-3.83-11.79-6.79l-3.92 5.13a44.6 44.6 0 0 0 8.29 5.29c3.24 1.59 6.78 2.8 10.53 3.6Z" class="cls-1"/></g></g></svg>